<svg width="48" height="48" viewBox="0 0 48 48" fill="none" xmlns="http://www.w3.org/2000/svg">
<path d="M27.9051 17.4308C28.3446 16.9914 28.3444 16.2788 27.9047 15.8396C27.4654 15.4007 26.7535 15.4008 26.3144 15.8398L18.4409 23.7105C18.3012 23.8494 18.1903 24.0145 18.1146 24.1963C18.039 24.3782 18 24.5733 18 24.7703C18 24.9672 18.039 25.1623 18.1146 25.3442C18.1903 25.526 18.3012 25.6911 18.4409 25.83L26.3144 33.7049C26.7535 34.144 27.4654 34.144 27.9045 33.7049C28.3435 33.2659 28.3436 32.5541 27.9046 32.115L20.5634 24.7725L27.9051 17.4308Z" fill="#C5C5C5"/>
</svg>
